<svg width="100" height="100" viewBox="0 0 100 100" fill="none" xmlns="http://www.w3.org/2000/svg">
  <rect width="100" height="100" rx="20" fill="#0a0a0c"/>
  <rect x="15" y="15" width="70" height="70" rx="12" fill="#00BFFF"/>
  <path d="M50 30C38.9543 30 30 38.9543 30 50C30 61.0457 38.9543 70 50 70C54.5212 70 58.683 68.4975 62 66L70 74L74 70L66 62C68.4975 58.683 70 54.5212 70 50C70 38.9543 61.0457 30 50 30ZM50 60C44.4772 60 40 55.5228 40 50C40 44.4772 44.4772 40 50 40C55.5228 40 60 44.4772 60 50C60 55.5228 55.5228 60 50 60Z" fill="#0a0a0c"/>
</svg>
